<?xml version="1.0" encoding="utf-8"?>
<!-- Generator: Adobe Illustrator 16.0.0, SVG Export Plug-In . SVG Version: 6.00 Build 0)  -->
<!DOCTYPE svg PUBLIC "-//W3C//DTD SVG 1.1//EN" "http://www.w3.org/Graphics/SVG/1.1/DTD/svg11.dtd">
<svg version="1.1" xmlns="http://www.w3.org/2000/svg" xmlns:xlink="http://www.w3.org/1999/xlink" x="0px" y="0px"
	 width="205.167px" height="37.473px" viewBox="0 0 205.167 37.473" enable-background="new 0 0 205.167 37.473"
	 xml:space="preserve">
<g id="Layer_1" display="none">
	<g id="Layer_4">
		<path display="inline" fill="#FFFFFF" d="M170.148,17.94c-3.716-0.685-5.986-1.312-7.348-2.673
			c-1.36-1.357-1.988-3.63-2.674-7.348c-0.06-0.31-0.32-0.528-0.635-0.528c-0.312,0-0.58,0.228-0.638,0.528
			c-0.687,3.718-1.312,5.986-2.673,7.348c-1.361,1.36-3.635,1.988-7.35,2.673c-0.307,0.062-0.526,0.322-0.526,0.64
			c0,0.312,0.224,0.579,0.526,0.635c3.715,0.685,5.986,1.312,7.35,2.673c1.357,1.36,1.986,3.632,2.673,7.348
			c0.058,0.31,0.319,0.528,0.638,0.528c0.311,0,0.575-0.224,0.635-0.528c0.686-3.716,1.312-5.982,2.674-7.348
			c1.359-1.356,3.632-1.988,7.348-2.673c0.307-0.056,0.527-0.321,0.527-0.635C170.675,18.263,170.455,17.998,170.148,17.94z"/>
	</g>
	<g id="Layer_2">
		<path display="inline" fill="none" stroke="#000000" stroke-width="8" stroke-linecap="round" stroke-miterlimit="10" d="
			M-13.007-45.615C-6.302-55.44-2.382-67.318-2.382-80.111c0-33.843-27.435-61.272-61.277-61.272
			c-33.842,0-61.276,27.435-61.276,61.272c0,33.843,27.435,61.276,61.276,61.276c14.613,0,28.031-5.115,38.562-13.652"/>
	</g>
</g>
<g id="Layer_2_1_">
	<text transform="matrix(1 0 0 1 5.0835 29.2366)" fill="#FFFFFF" font-family="'Roboto-Black'" font-size="36">Felipe Trova</text>
</g>
</svg>
